<svg width="23" height="36" viewBox="0 0 23 36" fill="none" xmlns="http://www.w3.org/2000/svg">
<path d="M1.4653 35.375L0.979187 31.0972L6.52085 15.8333C7.00696 16.287 7.53359 16.6678 8.10071 16.9757C8.66784 17.2836 9.27548 17.5185 9.92363 17.6806L4.57641 32.3611L1.4653 35.375ZM21.882 35.375L18.7709 32.3611L13.4236 17.6806C14.0718 17.5185 14.6794 17.2836 15.2465 16.9757C15.8137 16.6678 16.3403 16.287 16.8264 15.8333L22.3681 31.0972L21.882 35.375ZM11.6736 15.9306C10.0533 15.9306 8.67595 15.3634 7.54169 14.2292C6.40743 13.0949 5.8403 11.7176 5.8403 10.0972C5.8403 8.83333 6.20488 7.70718 6.93405 6.71875C7.66321 5.73032 8.59493 5.04167 9.72919 4.65278V0.375H13.6181V4.65278C14.7523 5.04167 15.684 5.73032 16.4132 6.71875C17.1424 7.70718 17.507 8.83333 17.507 10.0972C17.507 11.7176 16.9398 13.0949 15.8056 14.2292C14.6713 15.3634 13.294 15.9306 11.6736 15.9306ZM11.6736 12.0417C12.2246 12.0417 12.6864 11.8553 13.059 11.4826C13.4317 11.11 13.6181 10.6481 13.6181 10.0972C13.6181 9.5463 13.4317 9.08449 13.059 8.71181C12.6864 8.33912 12.2246 8.15278 11.6736 8.15278C11.1227 8.15278 10.6609 8.33912 10.2882 8.71181C9.91553 9.08449 9.72919 9.5463 9.72919 10.0972C9.72919 10.6481 9.91553 11.11 10.2882 11.4826C10.6609 11.8553 11.1227 12.0417 11.6736 12.0417Z" fill="#C9BB00"/>
</svg>
