<svg width="26" height="25" viewBox="0 0 26 25" fill="none" xmlns="http://www.w3.org/2000/svg">
<path d="M6.49704 9.24868C5.85757 9.24868 5.31393 9.02445 4.86612 8.57599C4.41831 8.12752 4.19441 7.58838 4.19441 6.95855C4.19441 6.32193 4.41831 5.77686 4.86612 5.32336C5.31393 4.87007 5.85757 4.64342 6.49704 4.64342C7.13629 4.64342 7.67983 4.86952 8.12763 5.32171C8.57566 5.7739 8.79967 6.31743 8.79967 6.9523C8.79967 7.58739 8.57566 8.12884 8.12763 8.57664C7.67983 9.02467 7.13629 9.24868 6.49704 9.24868ZM4.19441 25C3.8216 25 3.5091 24.8696 3.25691 24.6089C3.00471 24.3484 2.87862 24.0317 2.87862 23.6589C2.21393 23.6589 1.65132 23.4235 1.19079 22.9526C0.730263 22.482 0.5 21.9161 0.5 21.2549V14.3724H4.19441V13.373C4.19441 12.6156 4.45625 11.9707 4.97993 11.4385C5.50384 10.9062 6.14452 10.6401 6.90197 10.6401C7.32368 10.6401 7.71667 10.73 8.08092 10.9099C8.44539 11.0895 8.7727 11.3328 9.06283 11.6398L10.6516 13.4388C10.8271 13.6167 10.997 13.7834 11.1615 13.9391C11.326 14.0946 11.5069 14.239 11.7043 14.3724H20.8947V3.44638C20.8947 3.0466 20.7577 2.70121 20.4836 2.4102C20.2094 2.11919 19.8766 1.97368 19.4852 1.97368C19.306 1.97368 19.1343 2.01162 18.9701 2.0875C18.8058 2.16338 18.6561 2.26886 18.5211 2.40395L16.8763 4.06744C16.986 4.44463 17.0079 4.81623 16.9421 5.18224C16.8763 5.54824 16.7447 5.88903 16.5474 6.20461L13.3845 2.97566C13.6916 2.77566 14.0205 2.64792 14.3714 2.59243C14.7223 2.53695 15.0731 2.57588 15.424 2.70921L17.0688 1.04243C17.3909 0.715461 17.7584 0.459979 18.1714 0.275987C18.5841 0.0919961 19.022 0 19.4852 0C20.435 0 21.2363 0.33443 21.8891 1.00329C22.542 1.67215 22.8684 2.48651 22.8684 3.44638V14.3724H25.5V21.2549C25.5 21.9161 25.2697 22.482 24.8092 22.9526C24.3487 23.4235 23.7861 23.6589 23.1214 23.6589C23.1214 24.0317 22.9953 24.3484 22.7431 24.6089C22.4909 24.8696 22.1784 25 21.8056 25H4.19441ZM2.87862 21.6852H23.1214C23.2396 21.6852 23.3366 21.643 23.4125 21.5586C23.4884 21.4743 23.5263 21.3731 23.5263 21.2549V16.3461H2.47368V21.2549C2.47368 21.3731 2.51162 21.4743 2.5875 21.5586C2.66338 21.643 2.76042 21.6852 2.87862 21.6852ZM2.87862 21.6852H2.47368H23.5263H2.87862Z" fill="#C9BB00"/>
</svg>
