<svg width="32" height="21" viewBox="0 0 32 21" fill="none" xmlns="http://www.w3.org/2000/svg">
<path d="M0.799805 20.5V11.7C0.799805 11.1032 0.941405 10.5243 1.2246 9.9632C1.50754 9.40213 1.89927 8.94107 2.3998 8.58V4.5C2.3998 3.38213 2.787 2.436 3.5614 1.6616C4.3358 0.887199 5.28194 0.5 6.3998 0.5H13.1998C13.7825 0.5 14.3045 0.613333 14.7658 0.84C15.2274 1.06667 15.6387 1.38 15.9998 1.78C16.3609 1.38 16.7722 1.06667 17.2338 0.84C17.6951 0.613333 18.2171 0.5 18.7998 0.5H25.5998C26.7177 0.5 27.6638 0.887199 28.4382 1.6616C29.2126 2.436 29.5998 3.38213 29.5998 4.5V8.58C30.1003 8.94107 30.4921 9.40213 30.775 9.9632C31.0582 10.5243 31.1998 11.1032 31.1998 11.7V20.5H28.7998V17.3H3.1998V20.5H0.799805ZM17.1998 7.7H27.1998V4.5C27.1998 4.04667 27.0465 3.66667 26.7398 3.36C26.4331 3.05333 26.0531 2.9 25.5998 2.9H18.7998C18.3465 2.9 17.9665 3.05333 17.6598 3.36C17.3531 3.66667 17.1998 4.04667 17.1998 4.5V7.7ZM4.7998 7.7H14.7998V4.5C14.7998 4.04667 14.6465 3.66667 14.3398 3.36C14.0331 3.05333 13.6531 2.9 13.1998 2.9H6.3998C5.94647 2.9 5.56647 3.05333 5.25981 3.36C4.95314 3.66667 4.7998 4.04667 4.7998 4.5V7.7ZM3.1998 14.9H28.7998V11.7C28.7998 11.2467 28.6465 10.8667 28.3398 10.56C28.0331 10.2533 27.6531 10.1 27.1998 10.1H4.7998C4.34647 10.1 3.96647 10.2533 3.6598 10.56C3.35314 10.8667 3.1998 11.2467 3.1998 11.7V14.9Z" fill="#C9BB00"/>
</svg>
