<svg width="23" height="19" viewBox="0 0 23 19" fill="none" xmlns="http://www.w3.org/2000/svg">
<path d="M16.8066 6.96862C16.3379 6.96862 15.9395 6.80459 15.6112 6.47654C15.2832 6.14849 15.1192 5.75005 15.1192 5.28123C15.1192 4.81241 15.2832 4.41398 15.6112 4.08592C15.9395 3.75787 16.3379 3.59384 16.8066 3.59384C17.2754 3.59384 17.6738 3.75787 18.0019 4.08592C18.3301 4.41398 18.4942 4.81241 18.4942 5.28123C18.4942 5.75005 18.3301 6.14849 18.0019 6.47654C17.6738 6.80459 17.2754 6.96862 16.8066 6.96862ZM6.68164 6.96862C6.21282 6.96862 5.81438 6.80459 5.48633 6.47654C5.15807 6.14849 4.99394 5.75005 4.99394 5.28123C4.99394 4.81241 5.15807 4.41398 5.48633 4.08592C5.81438 3.75787 6.21282 3.59384 6.68164 3.59384C7.15025 3.59384 7.54869 3.75787 7.87694 4.08592C8.20499 4.41398 8.36902 4.81241 8.36902 5.28123C8.36902 5.75005 8.20499 6.14849 7.87694 6.47654C7.54869 6.80459 7.15025 6.96862 6.68164 6.96862ZM11.7441 10.0625C11.2753 10.0625 10.8768 9.89844 10.5488 9.57038C10.2207 9.24213 10.0567 8.84369 10.0567 8.37508C10.0567 7.90626 10.2207 7.50782 10.5488 7.17977C10.8768 6.85151 11.2753 6.68739 11.7441 6.68739C12.2129 6.68739 12.6114 6.85151 12.9394 7.17977C13.2675 7.50782 13.4315 7.90626 13.4315 8.37508C13.4315 8.84369 13.2675 9.24213 12.9394 9.57038C12.6114 9.89844 12.2129 10.0625 11.7441 10.0625ZM11.7441 3.87508C11.2753 3.87508 10.8768 3.71095 10.5488 3.38269C10.2207 3.05464 10.0567 2.65621 10.0567 2.18739C10.0567 1.71857 10.2207 1.32013 10.5488 0.992079C10.8768 0.664027 11.2753 0.5 11.7441 0.5C12.2129 0.5 12.6114 0.664027 12.9394 0.992079C13.2675 1.32013 13.4315 1.71857 13.4315 2.18739C13.4315 2.65621 13.2675 3.05464 12.9394 3.38269C12.6114 3.71095 12.2129 3.87508 11.7441 3.87508ZM11.7447 18.5C11.3693 18.5 10.9891 18.4735 10.6039 18.4205C10.2188 18.3673 9.84881 18.2899 9.49395 18.1883V14.1712C9.49395 13.507 9.71434 12.9374 10.1551 12.4625C10.5957 11.9876 11.1254 11.7502 11.7441 11.7502C12.3628 11.7502 12.8925 11.9876 13.3331 12.4625C13.7739 12.9374 13.9942 13.507 13.9942 14.1712V18.1883C13.6394 18.2899 13.2696 18.3673 12.8849 18.4205C12.5001 18.4735 12.1201 18.5 11.7447 18.5ZM7.80656 17.5954C7.43321 17.4463 7.07388 17.2785 6.72856 17.092C6.38324 16.9057 6.0497 16.6995 5.72795 16.4732C5.19799 16.0964 4.77914 15.608 4.4714 15.0079C4.16366 14.4079 4.00979 13.7704 4.00979 13.0954C4.00979 12.6129 3.95779 12.163 3.85379 11.7456C3.74978 11.3282 3.56707 10.9282 3.30565 10.5457C3.11877 10.2971 2.76776 9.92383 2.25263 9.42596C1.7375 8.92809 1.26451 8.46313 0.833677 8.03108C0.627502 7.8245 0.524414 7.56328 0.524414 7.24741C0.524414 6.93155 0.628314 6.67144 0.836114 6.46709C1.04249 6.25929 1.30504 6.15539 1.62374 6.15539C1.94245 6.15539 2.20489 6.25848 2.41107 6.46466L6.71241 10.5408C7.08718 10.8782 7.36323 11.2782 7.54056 11.7407C7.71789 12.2032 7.80656 12.6751 7.80656 13.1563V17.5954ZM15.6816 17.5954V13.1612C15.6816 12.6747 15.7754 12.1975 15.9629 11.7297C16.1504 11.2619 16.4214 10.8672 16.7761 10.5454L21.0847 6.46496C21.31 6.25858 21.5775 6.15539 21.8873 6.15539C22.1971 6.15539 22.4559 6.25929 22.6637 6.46709C22.8715 6.67489 22.9754 6.93683 22.9754 7.25289C22.9754 7.56896 22.8725 7.82917 22.6667 8.03352C22.2367 8.4611 21.7622 8.92048 21.2432 9.41164C20.7242 9.90301 20.3703 10.2809 20.1816 10.5454C19.9192 10.9196 19.7364 11.3172 19.6332 11.7383C19.53 12.1594 19.4784 12.6131 19.4784 13.0996C19.4784 13.7734 19.3245 14.413 19.0168 15.0183C18.7091 15.6238 18.2833 16.1171 17.7395 16.4982C17.4395 16.7078 17.1155 16.9057 16.7676 17.092C16.4198 17.2785 16.0578 17.4463 15.6816 17.5954Z" fill="#C9BB00"/>
</svg>
