<svg width="21" height="19" viewBox="0 0 21 19" fill="none" xmlns="http://www.w3.org/2000/svg">
<path d="M3.0881 16.1V17.6C3.0881 17.855 3.0019 18.0687 2.8295 18.2411C2.6569 18.4137 2.4431 18.5 2.1881 18.5H1.4498C1.1948 18.5 0.981105 18.4137 0.808705 18.2411C0.636105 18.0687 0.549805 17.855 0.549805 17.6V8.3924L3.0005 1.4C3.0899 1.1246 3.2538 0.9058 3.4922 0.7436C3.7306 0.5812 3.996 0.5 4.2884 0.5H17.2574C17.5382 0.5 17.7932 0.5825 18.0224 0.7475C18.2514 0.9125 18.4103 1.13 18.4991 1.4L20.9498 8.3924V17.6C20.9498 17.855 20.8635 18.0687 20.6909 18.2411C20.5185 18.4137 20.3048 18.5 20.0498 18.5H19.3115C19.0565 18.5 18.8427 18.4137 18.6701 18.2411C18.4977 18.0687 18.4115 17.855 18.4115 17.6V16.1H3.0881ZM3.0791 6.5924H18.4205L16.9067 2.3H4.5929L3.0791 6.5924ZM5.3063 12.9155C5.7429 12.9155 6.1132 12.7626 6.4172 12.4568C6.721 12.1512 6.8729 11.7801 6.8729 11.3435C6.8729 10.9069 6.7201 10.5366 6.4145 10.2326C6.1087 9.9288 5.7375 9.7769 5.3009 9.7769C4.8643 9.7769 4.4941 9.9297 4.1903 10.2353C3.8863 10.5411 3.7343 10.9123 3.7343 11.3489C3.7343 11.7855 3.8872 12.1557 4.193 12.4595C4.4986 12.7635 4.8697 12.9155 5.3063 12.9155ZM16.1987 12.9155C16.6353 12.9155 17.0055 12.7626 17.3093 12.4568C17.6133 12.1512 17.7653 11.7801 17.7653 11.3435C17.7653 10.9069 17.6124 10.5366 17.3066 10.2326C17.001 9.9288 16.6299 9.7769 16.1933 9.7769C15.7567 9.7769 15.3864 9.9297 15.0824 10.2353C14.7786 10.5411 14.6267 10.9123 14.6267 11.3489C14.6267 11.7855 14.7795 12.1557 15.0851 12.4595C15.3909 12.7635 15.7621 12.9155 16.1987 12.9155ZM2.3498 14.3H19.1498V8.3924H2.3498V14.3Z" fill="#C9BB00"/>
</svg>
