<svg width="24" height="23" viewBox="0 0 24 23" fill="none" xmlns="http://www.w3.org/2000/svg">
<path d="M21.5115 8.31723L20.2393 7.04504L20.9889 6.26503C21.067 6.18686 21.1061 6.09894 21.1061 6.00127C21.1061 5.90361 21.067 5.81579 20.9889 5.73782L17.5122 2.26114C17.4342 2.18296 17.3464 2.14388 17.2487 2.14388C17.1511 2.14388 17.0631 2.18296 16.985 2.26114L16.205 3.01069L14.9023 1.70804L15.6988 0.881124C16.1112 0.468735 16.6196 0.267616 17.2241 0.277769C17.8285 0.287921 18.337 0.499192 18.7493 0.911581L22.3384 4.50065C22.7508 4.91304 22.957 5.41639 22.957 6.01071C22.957 6.60503 22.7508 7.10839 22.3384 7.52078L21.5115 8.31723ZM7.77078 22.0884C7.35839 22.5008 6.85503 22.707 6.26071 22.707C5.66639 22.707 5.16304 22.5008 4.75065 22.0884L1.20849 18.5459C0.788177 18.1258 0.578023 17.607 0.578023 16.9893C0.578023 16.3716 0.788177 15.8526 1.20849 15.4323L1.95804 14.6828L3.26069 15.9854L2.49225 16.735C2.41408 16.8131 2.37499 16.9011 2.37499 16.9987C2.37499 17.0964 2.41408 17.1842 2.49225 17.2622L5.98782 20.7577C6.06579 20.8359 6.1536 20.875 6.25127 20.875C6.34894 20.875 6.43686 20.8359 6.51503 20.7577L7.26458 19.9893L8.56723 21.292L7.77078 22.0884ZM19.745 12.8273L21.3053 11.267C21.3835 11.1888 21.4226 11.099 21.4226 10.9975C21.4226 10.8959 21.3835 10.8061 21.3053 10.7279L12.5221 1.94469C12.4439 1.86651 12.3541 1.82743 12.2525 1.82743C12.151 1.82743 12.0612 1.86651 11.983 1.94469L10.4227 3.50501C10.3447 3.58318 10.3057 3.671 10.3057 3.76846C10.3057 3.86613 10.3447 3.95405 10.4227 4.03222L19.2178 12.8273C19.296 12.9053 19.3839 12.9443 19.4815 12.9443C19.579 12.9443 19.6668 12.9053 19.745 12.8273ZM11.4865 21.0858L13.0469 19.5066C13.1248 19.4286 13.1638 19.3408 13.1638 19.2431C13.1638 19.1454 13.1248 19.0576 13.0469 18.9797L4.27034 10.2031C4.19237 10.1252 4.10455 10.0862 4.00689 10.0862C3.90922 10.0862 3.8214 10.1252 3.74343 10.2031L2.16423 11.7635C2.08606 11.8416 2.04697 11.9315 2.04697 12.033C2.04697 12.1345 2.08606 12.2244 2.16423 12.3025L10.9475 21.0858C11.0256 21.1639 11.1155 21.203 11.217 21.203C11.3185 21.203 11.4084 21.1639 11.4865 21.0858ZM10.9639 14.3103L14.5487 10.7444L12.5056 8.70129L8.93972 12.2861L10.9639 14.3103ZM12.7773 22.3695C12.3572 22.7898 11.8371 23 11.217 23C10.5969 23 10.0768 22.7898 9.65668 22.3695L0.880462 13.5933C0.460154 13.1732 0.25 12.6531 0.25 12.033C0.25 11.4129 0.460154 10.8928 0.880462 10.4727L2.44078 8.90049C2.86089 8.48038 3.37977 8.27033 3.99744 8.27033C4.61532 8.27033 5.13431 8.48038 5.55441 8.90049L7.63707 10.9834L11.2219 7.39895L9.13891 5.33487C8.7188 4.91476 8.50875 4.39263 8.50875 3.76846C8.50875 3.1445 8.7188 2.62246 9.13891 2.20235L10.7111 0.630463C11.1312 0.210155 11.6501 0 12.2678 0C12.8854 0 13.4043 0.210155 13.8244 0.630463L22.6195 9.42557C23.0398 9.84567 23.25 10.3646 23.25 10.9822C23.25 11.5999 23.0398 12.1188 22.6195 12.5389L21.0476 14.1111C20.6275 14.5312 20.1055 14.7412 19.4815 14.7412C18.8574 14.7412 18.3352 14.5312 17.9151 14.1111L15.8511 12.0281L12.2666 15.6129L14.3495 17.6956C14.7696 18.1157 14.9797 18.6347 14.9797 19.2526C14.9797 19.8702 14.7696 20.3891 14.3495 20.8092L12.7773 22.3695Z" fill="#C9BB00"/>
</svg>
