<svg width="25" height="26" viewBox="0 0 25 26" fill="none" xmlns="http://www.w3.org/2000/svg">
<g clip-path="url(#clip0_254_281)">
<path d="M12.5019 25.5039C19.4065 25.5039 25.0039 19.9065 25.0039 13.0019C25.0039 6.0973 19.4065 0.5 12.5019 0.5C5.5973 0.5 0 6.0973 0 13.0019C0 19.9065 5.5973 25.5039 12.5019 25.5039Z" fill="#454C54"/>
<path d="M10.9411 19.1834H13.4307V12.9479H15.1688L15.3538 10.8591H13.4307V9.66826C13.4307 9.17497 13.5309 8.98228 14.0049 8.98228H15.3538V6.81641H13.6311C11.7774 6.81641 10.9411 7.63342 10.9411 9.19424V10.8591H9.64621V12.9749H10.9411V19.1834Z" fill="white"/>
</g>
<defs>
<clipPath id="clip0_254_281">
<rect width="25" height="25" fill="white" transform="translate(0 0.5)"/>
</clipPath>
</defs>
</svg>
