<svg width="46" height="45" viewBox="0 0 46 45" fill="none" xmlns="http://www.w3.org/2000/svg">
<path d="M28.4487 28.0963C29.3631 28.0963 30.1419 28.4161 30.7853 29.0559C31.4284 29.6959 31.75 30.4706 31.75 31.3802C31.75 32.2897 31.4284 33.0644 30.7853 33.7044C30.1419 34.3442 29.3631 34.6641 28.4487 34.6641C27.7221 34.6641 27.0683 34.448 26.4874 34.0158C25.9064 33.5837 25.5196 33.019 25.3271 32.3219H16.7528L15.5148 34.244C15.3741 34.4646 15.1726 34.6015 14.9105 34.6546C14.6484 34.7076 14.4064 34.6641 14.1847 34.524C13.9629 34.384 13.8253 34.1837 13.7719 33.9229C13.7187 33.6621 13.7624 33.4215 13.9032 33.2009L19.1563 25.1693C17.7143 24.5833 16.5297 23.6722 15.6026 22.436C14.6752 21.1996 14.1508 19.7861 14.0294 18.1956H30.2936C30.1722 19.7861 29.6499 21.1996 28.7268 22.436C27.8034 23.6722 26.6207 24.5833 25.1787 25.1693L26.5966 27.3984C26.26 27.5673 25.9861 27.7302 25.7749 27.8872C25.5636 28.0442 25.3302 28.2627 25.0746 28.543L23.254 25.6669C23.1017 25.7087 22.9289 25.7296 22.7355 25.7296H21.5995C21.4141 25.7296 21.2454 25.7087 21.0933 25.6669L17.9814 30.4384H25.3271C25.5196 29.7413 25.9064 29.1767 26.4874 28.7445C27.0683 28.3123 27.7221 28.0963 28.4487 28.0963ZM28.4487 32.7809C28.8468 32.7809 29.181 32.6464 29.4513 32.3775C29.7217 32.1086 29.8569 31.7761 29.8569 31.3802C29.8569 30.9842 29.7217 30.6518 29.4513 30.3828C29.181 30.1139 28.8468 29.9795 28.4487 29.9795C28.0507 29.9795 27.7165 30.1139 27.4462 30.3828C27.1758 30.6518 27.0406 30.9842 27.0406 31.3802C27.0406 31.7761 27.1758 32.1086 27.4462 32.3775C27.7165 32.6464 28.0507 32.7809 28.4487 32.7809ZM22.1615 23.8581C23.44 23.8581 24.598 23.5088 25.6354 22.8102C26.6726 22.1116 27.4502 21.2013 27.9681 20.0791H16.3549C16.8857 21.2013 17.6665 22.1116 18.6974 22.8102C19.7283 23.5088 20.883 23.8581 22.1615 23.8581ZM19.0373 16.4571C19.1345 15.8663 19.1187 15.3617 18.99 14.9431C18.8614 14.5245 18.5883 14.0592 18.1707 13.5471C17.75 13.003 17.4732 12.4911 17.3405 12.0114C17.2077 11.5318 17.1939 10.9691 17.2991 10.3235H18.2458C18.1489 10.9143 18.1646 11.4157 18.2932 11.8278C18.4219 12.2401 18.695 12.7021 19.1124 13.214C19.5462 13.7582 19.8262 14.2701 19.9525 14.7497C20.0787 15.2294 20.0892 15.7985 19.984 16.4571H19.0373ZM22.1811 16.4571C22.2781 15.8663 22.2654 15.3617 22.1432 14.9431C22.0212 14.5245 21.7514 14.0592 21.3338 13.5471C20.8999 13.016 20.6168 12.5106 20.4842 12.0309C20.3515 11.551 20.3377 10.9819 20.4429 10.3235H21.3896C21.2924 10.9143 21.3082 11.4157 21.437 11.8278C21.5655 12.2401 21.8386 12.7021 22.2562 13.214C22.677 13.7452 22.9537 14.2507 23.0865 14.7306C23.219 15.2102 23.2327 15.7858 23.1275 16.4571H22.1811ZM25.3488 16.4571C25.446 15.8663 25.4335 15.3617 25.3113 14.9431C25.1891 14.5245 24.9191 14.0592 24.5015 13.5471C24.0679 13.016 23.7847 12.5106 23.652 12.0309C23.5192 11.551 23.5055 10.9819 23.6106 10.3235H24.5574C24.4604 10.9143 24.4762 11.4157 24.6047 11.8278C24.7335 12.2401 25.0065 12.7021 25.4239 13.214C25.8447 13.7452 26.1215 14.2507 26.2542 14.7306C26.387 15.2102 26.4008 15.7858 26.2956 16.4571H25.3488Z" fill="#C9BB00"/>
</svg>
