<svg width="25" height="26" viewBox="0 0 25 26" fill="none" xmlns="http://www.w3.org/2000/svg">
<g clip-path="url(#clip0_254_284)">
<path d="M12.5019 25.5039C19.4065 25.5039 25.0039 19.9065 25.0039 13.0019C25.0039 6.0973 19.4065 0.5 12.5019 0.5C5.5973 0.5 0 6.0973 0 13.0019C0 19.9065 5.5973 25.5039 12.5019 25.5039Z" fill="#454C54"/>
<path d="M12.5019 8.17309C14.0743 8.17309 14.2593 8.1808 14.8798 8.20778C15.454 8.23475 15.7661 8.3311 15.9742 8.41203C16.2479 8.51994 16.4444 8.64712 16.6525 8.85137C16.8568 9.05563 16.9878 9.25217 17.0919 9.52965C17.1728 9.73776 17.2691 10.0499 17.2961 10.6241C17.3231 11.2446 17.3308 11.4296 17.3308 13.002C17.3308 14.5744 17.3231 14.7593 17.2961 15.3798C17.2691 15.954 17.1728 16.2662 17.0919 16.4743C16.984 16.7479 16.8568 16.9445 16.6525 17.1526C16.4483 17.3607 16.2517 17.4879 15.9742 17.5919C15.7661 17.6729 15.454 17.7692 14.8798 17.7962C14.2593 17.8232 14.0743 17.8309 12.5019 17.8309C10.9295 17.8309 10.7446 17.8232 10.1241 17.7962C9.54986 17.7692 9.2377 17.6729 9.02959 17.5919C8.75597 17.484 8.55942 17.3568 8.35131 17.1526C8.14706 16.9483 8.01603 16.7518 7.91197 16.4743C7.83104 16.2662 7.73469 15.954 7.70772 15.3798C7.68074 14.7593 7.67303 14.5744 7.67303 13.002C7.67303 11.4296 7.68074 11.2446 7.70772 10.6241C7.73469 10.0499 7.83104 9.73776 7.91197 9.52965C8.01988 9.25603 8.14706 9.05948 8.35131 8.85137C8.55557 8.64712 8.75211 8.51609 9.02959 8.41203C9.2377 8.3311 9.54986 8.23475 10.1241 8.20778C10.7446 8.1808 10.9295 8.17309 12.5019 8.17309ZM12.5019 7.11328C10.9026 7.11328 10.7022 7.12099 10.074 7.14797C9.44581 7.17494 9.01803 7.27514 8.64421 7.42159C8.25882 7.57189 7.92739 7.77229 7.59981 8.09987C7.27223 8.42745 7.07183 8.75503 6.92153 9.14427C6.77508 9.51809 6.67488 9.94587 6.64791 10.574C6.62093 11.2022 6.61322 11.4026 6.61322 13.002C6.61322 14.6013 6.62093 14.8017 6.64791 15.4299C6.67488 16.0581 6.77508 16.4859 6.92153 16.8597C7.07183 17.2451 7.27223 17.5765 7.59981 17.9041C7.92739 18.2317 8.25497 18.4321 8.64421 18.5824C9.01803 18.7288 9.44581 18.829 10.074 18.856C10.7022 18.883 10.9026 18.8907 12.5019 18.8907C14.1013 18.8907 14.3017 18.883 14.9299 18.856C15.558 18.829 15.9858 18.7288 16.3596 18.5824C16.7489 18.4321 17.0765 18.2317 17.404 17.9041C17.7316 17.5765 17.932 17.2489 18.0823 16.8597C18.2288 16.4859 18.329 16.0581 18.3559 15.4299C18.3829 14.8017 18.3906 14.6013 18.3906 13.002C18.3906 11.4026 18.3829 11.2022 18.3559 10.574C18.329 9.94587 18.2288 9.51809 18.0823 9.14427C17.932 8.75888 17.7316 8.42745 17.404 8.09987C17.0765 7.77229 16.7489 7.57189 16.3596 7.42159C15.9858 7.27514 15.558 7.17494 14.9299 7.14797C14.3017 7.12099 14.1013 7.11328 12.5019 7.11328Z" fill="white"/>
<path d="M12.5019 9.97656C10.8332 9.97656 9.47665 11.3293 9.47665 13.0018C9.47665 14.6744 10.8294 16.0271 12.5019 16.0271C14.1745 16.0271 15.5272 14.6744 15.5272 13.0018C15.5272 11.3293 14.1745 9.97656 12.5019 9.97656ZM12.5019 14.9635C11.419 14.9635 10.5403 14.0848 10.5403 13.0018C10.5403 11.9189 11.419 11.0402 12.5019 11.0402C13.5849 11.0402 14.4636 11.9189 14.4636 13.0018C14.4636 14.0848 13.5849 14.9635 12.5019 14.9635Z" fill="white"/>
<path d="M16.3519 9.8576C16.3519 10.2468 16.0359 10.5629 15.6467 10.5629C15.2574 10.5629 14.9414 10.2468 14.9414 9.8576C14.9414 9.46836 15.2574 9.15234 15.6467 9.15234C16.0359 9.15234 16.3519 9.46836 16.3519 9.8576Z" fill="white"/>
</g>
<defs>
<clipPath id="clip0_254_284">
<rect width="25" height="25" fill="white" transform="translate(0 0.5)"/>
</clipPath>
</defs>
</svg>
