<svg width="25" height="26" viewBox="0 0 25 26" fill="none" xmlns="http://www.w3.org/2000/svg">
<g clip-path="url(#clip0_254_290)">
<path d="M12.5019 25.5039C19.4065 25.5039 25.0039 19.9065 25.0039 13.0019C25.0039 6.0973 19.4065 0.5 12.5019 0.5C5.5973 0.5 0 6.0973 0 13.0019C0 19.9065 5.5973 25.5039 12.5019 25.5039Z" fill="#454C54"/>
<path d="M18.2057 14.2353V18.4553H15.7585V14.5166C15.7585 13.5262 15.4039 12.8517 14.5175 12.8517C13.8431 12.8517 13.4384 13.3065 13.2612 13.7458C13.1956 13.9038 13.1802 14.1197 13.1802 14.3432V18.4514H10.733C10.733 18.4514 10.7677 11.7842 10.733 11.0944H13.1802V12.1388C13.1802 12.1388 13.1687 12.1542 13.1648 12.1619H13.1802V12.1388C13.5039 11.6378 14.0859 10.9248 15.3846 10.9248C16.9955 10.9248 18.2018 11.9769 18.2018 14.2353H18.2057ZM8.17791 7.54883C7.34162 7.54883 6.79437 8.09993 6.79437 8.8206C6.79437 9.54127 7.32621 10.0924 8.14708 10.0924H8.16249C9.0142 10.0924 9.54603 9.52586 9.54603 8.8206C9.53061 8.09993 9.0142 7.54883 8.17791 7.54883ZM6.94082 18.4553H9.38802V11.0944H6.94082V18.4553Z" fill="white"/>
</g>
<defs>
<clipPath id="clip0_254_290">
<rect width="25" height="25" fill="white" transform="translate(0 0.5)"/>
</clipPath>
</defs>
</svg>
