<svg width="20" height="23" viewBox="0 0 20 23" fill="none" xmlns="http://www.w3.org/2000/svg">
<path d="M10.0022 11.3312C10.6284 11.3312 11.1637 11.1169 11.6082 10.6881C12.0529 10.2594 12.2753 9.7441 12.2753 9.14217C12.2753 8.54023 12.0523 8.02551 11.6063 7.598C11.1603 7.1707 10.6242 6.95705 9.9978 6.95705C9.37164 6.95705 8.83631 7.17141 8.39181 7.60012C7.9471 8.02884 7.72475 8.54426 7.72475 9.1464C7.72475 9.74834 7.94773 10.263 8.3937 10.6903C8.83967 11.1176 9.37583 11.3312 10.0022 11.3312ZM10 20.585C12.4623 18.466 14.3465 16.4336 15.6527 14.4876C16.959 12.5416 17.6121 10.8373 17.6121 9.37447C17.6121 7.16878 16.8831 5.35552 15.4252 3.93466C13.9674 2.51381 12.1589 1.80339 10 1.80339C7.84106 1.80339 6.03265 2.51381 4.57475 3.93466C3.11686 5.35552 2.38792 7.16878 2.38792 9.37447C2.38792 10.8373 3.04103 12.5416 4.34726 14.4876C5.65349 16.4336 7.53774 18.466 10 20.585ZM10 23C6.83249 20.3616 4.45728 17.9061 2.87437 15.6337C1.29146 13.3611 0.5 11.2747 0.5 9.37447C0.5 6.58238 1.43945 4.32194 3.31835 2.59316C5.19745 0.864387 7.42467 0 10 0C12.5753 0 14.8025 0.864387 16.6817 2.59316C18.5606 4.32194 19.5 6.58238 19.5 9.37447C19.5 11.2747 18.7085 13.3611 17.1256 15.6337C15.5427 17.9061 13.1675 20.3616 10 23Z" fill="#C9BB00"/>
</svg>
