<svg width="36" height="35" viewBox="0 0 36 35" fill="none" xmlns="http://www.w3.org/2000/svg">
<path d="M16.1518 35V31.8037C12.8223 31.4307 9.96556 30.0523 7.58162 27.6684C5.19768 25.2844 3.81925 22.4277 3.44635 19.0982H0.25V15.9018H3.44635C3.81925 12.5723 5.19768 9.71556 7.58162 7.33162C9.96556 4.94768 12.8223 3.56925 16.1518 3.19635V0H19.3482V3.19635C22.6777 3.56925 25.5344 4.94768 27.9184 7.33162C30.3023 9.71556 31.6807 12.5723 32.0537 15.9018H35.25V19.0982H32.0537C31.6807 22.4277 30.3023 25.2844 27.9184 27.6684C25.5344 30.0523 22.6777 31.4307 19.3482 31.8037V35H16.1518ZM17.75 28.6872C20.8398 28.6872 23.4768 27.5951 25.661 25.411C27.8451 23.2268 28.9372 20.5898 28.9372 17.5C28.9372 14.4102 27.8451 11.7732 25.661 9.58904C23.4768 7.40487 20.8398 6.31279 17.75 6.31279C14.6602 6.31279 12.0232 7.40487 9.83904 9.58904C7.65487 11.7732 6.56279 14.4102 6.56279 17.5C6.56279 20.5898 7.65487 23.2268 9.83904 25.411C12.0232 27.5951 14.6602 28.6872 17.75 28.6872ZM17.75 23.8927C15.992 23.8927 14.4871 23.2667 13.2352 22.0148C11.9833 20.7629 11.3573 19.258 11.3573 17.5C11.3573 15.742 11.9833 14.2371 13.2352 12.9852C14.4871 11.7333 15.992 11.1073 17.75 11.1073C19.508 11.1073 21.0129 11.7333 22.2648 12.9852C23.5167 14.2371 24.1427 15.742 24.1427 17.5C24.1427 19.258 23.5167 20.7629 22.2648 22.0148C21.0129 23.2667 19.508 23.8927 17.75 23.8927ZM17.75 20.6963C18.629 20.6963 19.3815 20.3834 20.0074 19.7574C20.6334 19.1315 20.9463 18.379 20.9463 17.5C20.9463 16.621 20.6334 15.8685 20.0074 15.2426C19.3815 14.6166 18.629 14.3037 17.75 14.3037C16.871 14.3037 16.1185 14.6166 15.4926 15.2426C14.8666 15.8685 14.5537 16.621 14.5537 17.5C14.5537 18.379 14.8666 19.1315 15.4926 19.7574C16.1185 20.3834 16.871 20.6963 17.75 20.6963Z" fill="#C9BB00"/>
</svg>
