<svg width="25" height="26" viewBox="0 0 25 26" fill="none" xmlns="http://www.w3.org/2000/svg">
<g clip-path="url(#clip0_254_293)">
<path d="M12.5019 25.5039C19.4065 25.5039 25.0039 19.9065 25.0039 13.0019C25.0039 6.0973 19.4065 0.5 12.5019 0.5C5.5973 0.5 0 6.0973 0 13.0019C0 19.9065 5.5973 25.5039 12.5019 25.5039Z" fill="#454C54"/>
<path d="M13.2842 15.7185C12.552 15.6607 12.2399 15.2985 11.6656 14.9478C11.3496 16.6088 10.9642 18.2004 9.81577 19.0328C9.46122 16.524 10.336 14.6394 10.7407 12.6393C10.0509 11.4754 10.8255 9.13613 12.2822 9.71036C14.0743 10.4195 10.7291 14.0344 12.9759 14.4891C15.3229 14.9593 16.2787 10.4195 14.8258 8.93959C12.7254 6.8084 8.70586 8.88949 9.20301 11.9456C9.32248 12.6932 10.0932 12.9168 9.51132 13.9496C8.16632 13.6529 7.76552 12.5892 7.81562 11.1748C7.9004 8.85865 9.8967 7.24003 11.9007 7.01265C14.4327 6.72747 16.8105 7.94144 17.142 10.327C17.5119 13.017 15.9974 15.9305 13.2881 15.7185H13.2842Z" fill="white"/>
</g>
<defs>
<clipPath id="clip0_254_293">
<rect width="25" height="25" fill="white" transform="translate(0 0.5)"/>
</clipPath>
</defs>
</svg>
