<svg width="65" height="81" viewBox="0 0 65 81" fill="none" xmlns="http://www.w3.org/2000/svg">
<path d="M32.5 40.3629C34.7344 40.3629 36.6471 39.5725 38.2383 37.9916C39.8294 36.4107 40.625 34.5103 40.625 32.2903C40.625 30.0704 39.8294 28.1699 38.2383 26.5891C36.6471 25.0082 34.7344 24.2177 32.5 24.2177C30.2656 24.2177 28.3529 25.0082 26.7617 26.5891C25.1706 28.1699 24.375 30.0704 24.375 32.2903C24.375 34.5103 25.1706 36.4107 26.7617 37.9916C28.3529 39.5725 30.2656 40.3629 32.5 40.3629ZM32.5 80.7258C21.599 71.5096 13.457 62.9493 8.07422 55.0449C2.69141 47.1405 0 39.8247 0 33.0976C0 23.0069 3.26693 14.9679 9.80078 8.98075C16.3346 2.99358 23.901 0 32.5 0C41.099 0 48.6654 2.99358 55.1992 8.98075C61.7331 14.9679 65 23.0069 65 33.0976C65 39.8247 62.3086 47.1405 56.9258 55.0449C51.543 62.9493 43.401 71.5096 32.5 80.7258Z" fill="#C9BB00"/>
</svg>
