<svg width="26" height="23" viewBox="0 0 26 23" fill="none" xmlns="http://www.w3.org/2000/svg">
<path d="M0.75 22.9747V20.978C1.48803 20.9359 2.05801 20.7148 2.45994 20.3146C2.86165 19.9144 3.61154 19.7143 4.70962 19.7143C5.80748 19.7143 6.589 19.9333 7.05417 20.3714C7.51934 20.8095 8.16122 21.0286 8.97981 21.0286C9.7984 21.0286 10.4403 20.8095 10.9054 20.3714C11.3706 19.9333 12.1521 19.7143 13.25 19.7143C14.3479 19.7143 15.1335 19.9333 15.6071 20.3714C16.0803 20.8095 16.7263 21.0286 17.5449 21.0286C18.3635 21.0286 19.0012 20.8095 19.458 20.3714C19.9151 19.9333 20.6925 19.7143 21.7904 19.7143C22.8885 19.7143 23.6384 19.9144 24.0401 20.3146C24.442 20.7148 25.012 20.9359 25.75 20.978V22.9747C24.7359 22.9241 24.0188 22.6966 23.5987 22.2923C23.1788 21.8879 22.5761 21.6857 21.7904 21.6857C21.0047 21.6857 20.3834 21.9048 19.9266 22.3429C19.4696 22.781 18.6756 23 17.5449 23C16.4141 23 15.612 22.781 15.1385 22.3429C14.6652 21.9048 14.0357 21.6857 13.25 21.6857C12.4643 21.6857 11.8389 21.9048 11.3737 22.3429C10.9085 22.781 10.1106 23 8.97981 23C7.84904 23 7.05107 22.781 6.5859 22.3429C6.12073 21.9048 5.4953 21.6857 4.70962 21.6857C3.92393 21.6857 3.32115 21.8879 2.90128 22.2923C2.4812 22.6966 1.7641 22.9241 0.75 22.9747ZM0.75 17.0604V15.0637C1.48803 15.0216 2.05801 14.8005 2.45994 14.4003C2.86165 14.0001 3.61154 13.8 4.70962 13.8C5.80748 13.8 6.59231 14.019 7.0641 14.4571C7.5359 14.8952 8.17447 15.1143 8.97981 15.1143C9.7984 15.1143 10.4403 14.8952 10.9054 14.4571C11.3706 14.019 12.1521 13.8 13.25 13.8C14.3479 13.8 15.1294 14.019 15.5946 14.4571C16.0597 14.8952 16.7016 15.1143 17.5202 15.1143C18.3388 15.1143 18.9807 14.8952 19.4458 14.4571C19.911 14.019 20.6925 13.8 21.7904 13.8C22.8885 13.8 23.6384 14.0001 24.0401 14.4003C24.442 14.8005 25.012 15.0216 25.75 15.0637V17.0604C24.7359 17.0098 24.0188 16.7823 23.5987 16.378C23.1788 15.9736 22.5761 15.7714 21.7904 15.7714C21.0047 15.7714 20.3933 15.9905 19.9561 16.4286C19.5189 16.8667 18.7152 17.0857 17.5449 17.0857C16.4009 17.0857 15.5955 16.8667 15.1288 16.4286C14.662 15.9905 14.0357 15.7714 13.25 15.7714C12.438 15.7714 11.8159 15.9905 11.3837 16.4286C10.9514 16.8667 10.1501 17.0857 8.97981 17.0857C7.80951 17.0857 7.0016 16.8667 6.55609 16.4286C6.11079 15.9905 5.4953 15.7714 4.70962 15.7714C3.92393 15.7714 3.32115 15.9736 2.90128 16.378C2.4812 16.7823 1.7641 17.0098 0.75 17.0604ZM7.27853 10.5596L11.4798 6.25304L9.85256 4.58489C9.15577 3.87035 8.43259 3.35931 7.68301 3.05177C6.93344 2.74445 5.99818 2.57808 4.87724 2.55267V0C6.3484 0.0251905 7.56635 0.212258 8.53109 0.561201C9.49583 0.909924 10.4475 1.56531 11.3862 2.52737L19.2215 10.5596C18.9567 10.7502 18.6946 10.8998 18.4349 11.0085C18.1751 11.1171 17.8744 11.1714 17.5327 11.1714C16.862 11.1714 16.2755 10.9524 15.7734 10.5143C15.2713 10.0762 14.4301 9.85714 13.25 9.85714C12.0699 9.85714 11.2287 10.0762 10.7266 10.5143C10.2245 10.9524 9.63803 11.1714 8.96731 11.1714C8.62564 11.1714 8.32489 11.1171 8.06506 11.0085C7.80545 10.8998 7.54327 10.7502 7.27853 10.5596ZM19.1029 0.126499C19.9264 0.126499 20.6254 0.424295 21.2 1.01989C21.7744 1.61548 22.0615 2.32859 22.0615 3.15922C22.0615 4.00342 21.7744 4.72004 21.2 5.30906C20.6254 5.89786 19.9264 6.19226 19.1029 6.19226C18.2796 6.19226 17.5807 5.89786 17.0061 5.30906C16.4317 4.72004 16.1446 4.00342 16.1446 3.15922C16.1446 2.32859 16.4317 1.61548 17.0061 1.01989C17.5807 0.424295 18.2796 0.126499 19.1029 0.126499Z" fill="#C9BB00"/>
</svg>
