<svg width="35" height="35" viewBox="0 0 35 35" fill="none" xmlns="http://www.w3.org/2000/svg">
<path d="M15.5556 35V19.4931C13.4815 19.4931 11.4884 19.0961 9.57639 18.3021C7.66435 17.5081 5.97917 16.3819 4.52083 14.9236C3.0625 13.4653 1.94444 11.7801 1.16667 9.86806C0.388889 7.95602 0 5.96296 0 3.88889V0H3.88889C5.93056 0 7.90741 0.396991 9.81944 1.19097C11.7315 1.98495 13.4167 3.11111 14.875 4.56944C15.8796 5.57407 16.7141 6.67593 17.3785 7.875C18.0428 9.07407 18.5532 10.3542 18.9097 11.7153C19.0718 11.4884 19.25 11.2697 19.4444 11.059C19.6389 10.8484 19.8495 10.6296 20.0764 10.4028C21.5347 8.94444 23.2199 7.81829 25.1319 7.02431C27.044 6.23032 29.037 5.83333 31.1111 5.83333H35V9.72222C35 11.7963 34.603 13.7894 33.809 15.7014C33.015 17.6134 31.8889 19.2986 30.4306 20.7569C28.9722 22.2153 27.2951 23.3333 25.3993 24.1111C23.5035 24.8889 21.5185 25.2778 19.4444 25.2778V35H15.5556ZM15.5556 15.5556C15.5556 14 15.2558 12.5174 14.6562 11.1076C14.0567 9.69792 13.206 8.44213 12.1042 7.34028C11.0023 6.23843 9.74653 5.38773 8.33681 4.78819C6.92708 4.18866 5.44444 3.88889 3.88889 3.88889C3.88889 5.44444 4.18056 6.93519 4.76389 8.36111C5.34722 9.78704 6.18981 11.0509 7.29167 12.1528C8.39352 13.2546 9.65741 14.0972 11.0833 14.6806C12.5093 15.2639 14 15.5556 15.5556 15.5556ZM19.4444 21.3889C21 21.3889 22.4826 21.0972 23.8924 20.5139C25.3021 19.9306 26.5579 19.088 27.6597 17.9861C28.7616 16.8843 29.6123 15.6204 30.2118 14.1944C30.8113 12.7685 31.1111 11.2778 31.1111 9.72222C29.5556 9.72222 28.0648 10.022 26.6389 10.6215C25.213 11.2211 23.9491 12.0718 22.8472 13.1736C21.7454 14.2755 20.9028 15.5313 20.3194 16.941C19.7361 18.3507 19.4444 19.8333 19.4444 21.3889Z" fill="#C9BB00"/>
</svg>
