<svg width="35" height="27" viewBox="0 0 35 27" fill="none" xmlns="http://www.w3.org/2000/svg">
<g filter="url(#filter0_d_365_3055)">
<path d="M7.09295 18.5C6.17256 18.5 5.45819 18.168 4.94984 17.5041C4.44171 16.8402 4.24952 16.0574 4.37327 15.1558L5.82728 4.69123C6.00519 3.47531 6.53304 2.47273 7.41081 1.6835C8.28859 0.8945 9.32457 0.5 10.5187 0.5H23.9812C25.1753 0.5 26.2113 0.8945 27.0891 1.6835C27.9669 2.47273 28.4947 3.47531 28.6726 4.69123L30.1266 15.1558C30.2504 16.0574 30.0582 16.8402 29.5501 17.5041C29.0417 18.168 28.3274 18.5 27.407 18.5C27.0183 18.5 26.6613 18.4334 26.3361 18.3003C26.0109 18.1671 25.7089 17.9585 25.4301 17.6744L22.161 14.3462H12.3389L9.06982 17.6744C8.79105 17.9585 8.48906 18.1671 8.16383 18.3003C7.8386 18.4334 7.48164 18.5 7.09295 18.5ZM7.63689 16.2154L11.5124 12.2692H22.9875L26.863 16.2154C26.9084 16.2615 27.0809 16.3308 27.3808 16.4231C27.6301 16.4231 27.8284 16.3481 27.9757 16.1981C28.123 16.0481 28.174 15.8462 28.1287 15.5923L26.6329 4.93077C26.5422 4.26154 26.2454 3.70192 25.7425 3.25192C25.2396 2.80192 24.6525 2.57692 23.9812 2.57692H10.5187C9.84743 2.57692 9.26031 2.80192 8.7574 3.25192C8.25448 3.70192 7.9577 4.26154 7.86704 4.93077L6.37121 15.5923C6.32589 15.8462 6.37688 16.0481 6.5242 16.1981C6.67151 16.3481 6.86982 16.4231 7.11913 16.4231C7.18191 16.4231 7.35449 16.3538 7.63689 16.2154ZM24.0492 10.7513C24.3909 10.7513 24.6813 10.6298 24.9202 10.3868C25.1588 10.1436 25.2781 9.848 25.2781 9.5C25.2781 9.152 25.1588 8.85639 24.9202 8.61315C24.6813 8.37015 24.3909 8.24865 24.0492 8.24865C23.7074 8.24865 23.4171 8.37015 23.1782 8.61315C22.9395 8.85639 22.8202 9.152 22.8202 9.5C22.8202 9.848 22.9395 10.1436 23.1782 10.3868C23.4171 10.6298 23.7074 10.7513 24.0492 10.7513ZM21.3295 6.5975C21.6713 6.5975 21.9616 6.476 22.2005 6.233C22.4391 5.98977 22.5584 5.69415 22.5584 5.34615C22.5584 4.99815 22.4391 4.70254 22.2005 4.45931C21.9616 4.21631 21.6713 4.09481 21.3295 4.09481C20.9877 4.09481 20.6974 4.21631 20.4585 4.45931C20.2199 4.70254 20.1005 4.99815 20.1005 5.34615C20.1005 5.69415 20.2199 5.98977 20.4585 6.233C20.6974 6.476 20.9877 6.5975 21.3295 6.5975ZM11.6797 10.6717H13.3013V8.24865H15.681V6.5975H13.3013V4.17442H11.6797V6.5975H9.29998V8.24865H11.6797V10.6717Z" fill="#C9BB00"/>
</g>
<defs>
<filter id="filter0_d_365_3055" x="0.336914" y="0.5" width="33.8262" height="26" filterUnits="userSpaceOnUse" color-interpolation-filters="sRGB">
<feFlood flood-opacity="0" result="BackgroundImageFix"/>
<feColorMatrix in="SourceAlpha" type="matrix" values="0 0 0 0 0 0 0 0 0 0 0 0 0 0 0 0 0 0 127 0" result="hardAlpha"/>
<feOffset dy="4"/>
<feGaussianBlur stdDeviation="2"/>
<feComposite in2="hardAlpha" operator="out"/>
<feColorMatrix type="matrix" values="0 0 0 0 0 0 0 0 0 0 0 0 0 0 0 0 0 0 0.25 0"/>
<feBlend mode="normal" in2="BackgroundImageFix" result="effect1_dropShadow_365_3055"/>
<feBlend mode="normal" in="SourceGraphic" in2="effect1_dropShadow_365_3055" result="shape"/>
</filter>
</defs>
</svg>
