<svg width="26" height="19" viewBox="0 0 26 19" fill="none" xmlns="http://www.w3.org/2000/svg">
<path d="M5.35119 18.5L4.12061 17.2694L15.6124 5.77761H11.5879V8.11323H9.83615V4.0259H16.8407C17.0324 4.0259 17.2181 4.06181 17.3977 4.13363C17.5774 4.20565 17.7331 4.30744 17.8648 4.43902L21.4243 7.98068C21.9648 8.52118 22.6034 8.94675 23.3401 9.25739C24.0766 9.56802 24.8679 9.72938 25.714 9.74144V11.4932C24.6195 11.4932 23.6164 11.3045 22.7045 10.9271C21.7927 10.5499 20.9797 10.0101 20.2656 9.3079L18.9407 7.94711L15.8436 11.0327L18.4149 13.6043L11.3499 17.6869L10.4741 16.1553L15.5517 13.2314L13.0949 10.7744L5.35119 18.5ZM3.12126 10.4488V8.69713H8.37639V10.4488H3.12126ZM0.785645 6.94542V5.19371H6.04078V6.94542H0.785645ZM21.777 4.60981C21.2096 4.60981 20.7223 4.40914 20.3149 4.0078C19.9077 3.60666 19.7041 3.12241 19.7041 2.55505C19.7041 1.98749 19.9077 1.50315 20.3149 1.102C20.7223 0.700668 21.2096 0.5 21.777 0.5C22.3443 0.5 22.8317 0.700668 23.2391 1.102C23.6463 1.50315 23.8498 1.98749 23.8498 2.55505C23.8498 3.12241 23.6463 3.60666 23.2391 4.0078C22.8317 4.40914 22.3443 4.60981 21.777 4.60981ZM3.12126 3.442V1.69029H8.37639V3.442H3.12126Z" fill="#C9BB00"/>
</svg>
