<svg width="25" height="26" viewBox="0 0 25 26" fill="none" xmlns="http://www.w3.org/2000/svg">
<g clip-path="url(#clip0_254_302)">
<path d="M12.5019 25.5039C19.4065 25.5039 25.0039 19.9065 25.0039 13.0019C25.0039 6.0973 19.4065 0.5 12.5019 0.5C5.5973 0.5 0 6.0973 0 13.0019C0 19.9065 5.5973 25.5039 12.5019 25.5039Z" fill="#454C54"/>
<path fill-rule="evenodd" clip-rule="evenodd" d="M18.4561 12.6937C18.3752 9.47955 15.7276 6.89746 12.4672 6.89746C9.20687 6.89746 6.62093 9.41789 6.48219 12.5819C6.48219 12.6705 6.47834 12.7553 6.47834 12.844C6.47834 13.9693 6.7905 15.0175 7.33775 15.9155L6.25867 19.1065L9.57684 18.0505C10.4363 18.5207 11.4228 18.7905 12.4711 18.7905C15.7816 18.7905 18.4638 16.1275 18.4638 12.844C18.4638 12.7939 18.4638 12.7438 18.4638 12.6937H18.4561ZM12.4672 17.8424C11.4421 17.8424 10.4941 17.538 9.69631 17.0138L7.76167 17.6305L8.38985 15.7729C7.78865 14.9482 7.43024 13.9346 7.43024 12.8401C7.43024 12.6783 7.43795 12.5164 7.45722 12.3545C7.70387 9.82254 9.85817 7.84166 12.4711 7.84166C15.084 7.84166 17.2884 9.8765 17.4927 12.4509C17.5042 12.5819 17.5081 12.7091 17.5081 12.8401C17.5081 15.5956 15.2459 17.8386 12.4711 17.8386L12.4672 17.8424Z" fill="white"/>
<path fill-rule="evenodd" clip-rule="evenodd" d="M15.2151 14.0425C15.0648 13.9693 14.3441 13.6147 14.2092 13.5685C14.0743 13.5184 13.978 13.4952 13.8778 13.6417C13.7814 13.7881 13.4962 14.1157 13.4115 14.212C13.3228 14.3084 13.2419 14.32 13.0916 14.2467C12.9451 14.1735 12.4711 14.0232 11.9123 13.5222C11.4768 13.1368 11.1801 12.6628 11.0953 12.5163C11.0105 12.3699 11.0876 12.2928 11.1608 12.2196C11.2263 12.1541 11.3072 12.05 11.3805 11.9652C11.3997 11.9383 11.4152 11.919 11.4344 11.8959C11.4691 11.8419 11.4922 11.7918 11.5269 11.7225C11.577 11.6261 11.5539 11.5413 11.5154 11.4681C11.4807 11.3949 11.1839 10.6781 11.0606 10.3852C10.9411 10.0923 10.8178 10.1424 10.7292 10.1424C10.6405 10.1424 10.548 10.127 10.4478 10.127C10.3476 10.127 10.1896 10.1616 10.0547 10.3081C9.91985 10.4545 9.54218 10.8091 9.54218 11.5259C9.54218 11.6955 9.57301 11.8612 9.61925 12.0231C9.76955 12.5356 10.0894 12.9595 10.1434 13.0328C10.2166 13.1291 11.1569 14.6475 12.6522 15.2333C14.1475 15.8153 14.1475 15.6187 14.4173 15.5956C14.6871 15.5725 15.2883 15.2449 15.4078 14.9019C15.5311 14.5627 15.5311 14.2699 15.4964 14.2082C15.4617 14.1504 15.3615 14.1118 15.2151 14.0386V14.0425Z" fill="white"/>
</g>
<defs>
<clipPath id="clip0_254_302">
<rect width="25" height="25" fill="white" transform="translate(0 0.5)"/>
</clipPath>
</defs>
</svg>
