<svg width="25" height="26" viewBox="0 0 25 26" fill="none" xmlns="http://www.w3.org/2000/svg">
<g clip-path="url(#clip0_254_299)">
<path d="M12.5019 25.5039C19.4065 25.5039 25.0039 19.9065 25.0039 13.0019C25.0039 6.0973 19.4065 0.5 12.5019 0.5C5.5973 0.5 0 6.0973 0 13.0019C0 19.9065 5.5973 25.5039 12.5019 25.5039Z" fill="#454C54"/>
<path d="M6.50531 16.7673C7.59595 17.4648 8.887 17.8733 10.2782 17.8733C14.8451 17.8733 17.4272 14.0156 17.273 10.5548C17.7547 10.208 18.1709 9.77635 18.5024 9.27921C18.0592 9.47575 17.5852 9.60678 17.088 9.66459C17.5967 9.36014 17.986 8.8784 18.1709 8.30418C17.6969 8.58551 17.1689 8.78976 16.6101 8.90153C16.1592 8.42365 15.5233 8.12305 14.8142 8.12305C13.2264 8.12305 12.0587 9.60678 12.4171 11.1445C10.3707 11.0404 8.55942 10.0615 7.34545 8.57395C6.70186 9.68001 7.01017 11.1252 8.10852 11.8574C7.70386 11.8459 7.32618 11.7341 6.99475 11.5491C6.96777 12.6899 7.78479 13.7535 8.96793 13.9925C8.62108 14.085 8.2434 14.1081 7.85802 14.0349C8.17018 15.0138 9.07969 15.7229 10.1549 15.7421C9.12208 16.5514 7.81562 16.9137 6.51302 16.7595L6.50531 16.7673Z" fill="white"/>
</g>
<defs>
<clipPath id="clip0_254_299">
<rect width="25" height="25" fill="white" transform="translate(0 0.5)"/>
</clipPath>
</defs>
</svg>
