<svg width="25" height="26" viewBox="0 0 25 26" fill="none" xmlns="http://www.w3.org/2000/svg">
<g clip-path="url(#clip0_254_296)">
<path d="M12.5019 25.5039C19.4065 25.5039 25.0039 19.9065 25.0039 13.0019C25.0039 6.0973 19.4065 0.5 12.5019 0.5C5.5973 0.5 0 6.0973 0 13.0019C0 19.9065 5.5973 25.5039 12.5019 25.5039Z" fill="#454C54"/>
<path d="M15.928 8.85156H9.07199C7.727 8.85156 6.63635 9.94221 6.63635 11.2872V14.7133C6.63635 16.0583 7.727 17.1489 9.07199 17.1489H15.928C17.273 17.1489 18.3637 16.0583 18.3637 14.7133V11.2872C18.3637 9.94221 17.273 8.85156 15.928 8.85156ZM14.2824 13.1679L11.076 14.6979C10.9912 14.7403 10.891 14.6747 10.891 14.5823V11.4259C10.891 11.3296 10.9912 11.2679 11.0799 11.3103L14.2863 12.9367C14.3826 12.9868 14.3788 13.1216 14.2863 13.1679H14.2824Z" fill="white"/>
</g>
<defs>
<clipPath id="clip0_254_296">
<rect width="25" height="25" fill="white" transform="translate(0 0.5)"/>
</clipPath>
</defs>
</svg>
